<?xml version="1.0" encoding="iso-8859-1"?>
<!-- Generator: Adobe Illustrator 21.0.0, SVG Export Plug-In . SVG Version: 6.00 Build 0)  -->
<svg xmlns="http://www.w3.org/2000/svg" xmlns:xlink="http://www.w3.org/1999/xlink" version="1.1" id="Capa_1" x="0px" y="0px" viewBox="0 0 512 512" style="enable-background:new 0 0 512 512;" xml:space="preserve" width="512" height="512">
<g>
	<line x1="255.998" y1="512" x2="255.998" y2="512"/>
	<path d="M256,0C151.23,0,66,85.04,66,189.56c0,52.78,27.48,120.56,81.67,201.48c40.33,60.21,80.96,105.78,85.46,110.78   C238.95,508.29,247.29,512,256,512s17.05-3.71,22.87-10.18c4.5-5,45.13-50.57,85.46-110.78C418.52,310.12,446,242.34,446,189.56   C446,85.04,360.76,0,256,0z M256,322.9c-74.41,0-134.94-60.54-134.94-134.94c0-74.41,60.53-134.94,134.94-134.94   s134.94,60.53,134.94,134.94C390.94,262.36,330.41,322.9,256,322.9z M256,83.02c-57.86,0-104.94,47.08-104.94,104.94   c0,27.95,10.99,53.39,28.87,72.21c4.86-20.85,18.09-38.52,35.95-49.25c-7.5-9.03-12.01-20.63-12.01-33.25   c0-28.75,23.38-52.14,52.13-52.14s52.13,23.39,52.13,52.14c0,12.62-4.51,24.22-12.01,33.25c17.86,10.73,31.09,28.4,35.95,49.25   c17.88-18.82,28.87-44.26,28.87-72.21C360.94,130.1,313.86,83.02,256,83.02z M256,229.8c-26.52,0-48.1,21.58-48.1,48.1   c0,1.12,0.04,2.25,0.12,3.37c14.39,7.43,30.7,11.63,47.98,11.63s33.59-4.2,47.98-11.63c0.08-1.12,0.12-2.25,0.12-3.37   C304.1,251.38,282.52,229.8,256,229.8z M278.13,177.67c0-12.21-9.93-22.14-22.13-22.14s-22.13,9.93-22.13,22.14   c0,12.2,9.93,22.13,22.13,22.13S278.13,189.87,278.13,177.67z"/>
</g>















</svg>
