<?xml version="1.0"?>
<svg xmlns="http://www.w3.org/2000/svg" width="512" height="512" viewBox="0 0 512 512"><g><path d="M367.59,397.47A8,8,0,0,0,360,392H317.15C366.91,332.83,432,243.95,432,184,432,86.95,353.05,8,256,8S80,86.95,80,184c0,59.95,65.09,148.83,114.85,208H152a8,8,0,0,0-7.59,5.47l-32,96A8,8,0,0,0,120,504H392a8,8,0,0,0,7.59-10.53ZM96,184C96,95.78,167.78,24,256,24S416,95.78,416,184c0,78.99-130.82,221.62-160,252.44C226.82,405.62,96,262.99,96,184Zm35.1,304,26.67-80h50.76c11.42,13.13,21.43,24.09,28.81,32H192a8,8,0,0,0,0,16H320a8,8,0,0,0,0-16H274.66c7.38-7.91,17.39-18.87,28.81-32h50.76l26.67,80Z"/><path d="M307,310.11l.06-.03a.612.612,0,0,0,.12-.05A135.458,135.458,0,0,0,341,290.16a.435.435,0,0,0,.07-.06c.01,0,.02-.01.03-.02A135.4,135.4,0,0,0,392,184c0-74.99-61.01-136-136-136S120,109.01,120,184a135.4,135.4,0,0,0,50.9,106.08l.03.03c.02.01.04.03.07.05a135.458,135.458,0,0,0,33.82,19.87.612.612,0,0,0,.12.05l.06.03a136.441,136.441,0,0,0,102,0ZM168,248v17.59a120,120,0,1,1,176,0V248a32.041,32.041,0,0,0-31.15-31.99L280,209.44v-7.9A48.012,48.012,0,0,0,304,160V136a40.04,40.04,0,0,0-40-40H248a40.04,40.04,0,0,0-40,40v24a48.012,48.012,0,0,0,24,41.54v7.9l-32.85,6.57A32.041,32.041,0,0,0,168,248Zm88-56a32.036,32.036,0,0,1-32-32v-.19c13.89-.54,42.86-2.65,64-10.88V160A32.036,32.036,0,0,1,256,192Zm8,16v8a8,8,0,0,1-16,0v-8Zm-40-64.19V136a24.032,24.032,0,0,1,24-24h16a24.043,24.043,0,0,1,23.6,19.64C270.96,140.14,241.2,143.1,224,143.81ZM208,264a8,8,0,0,0-8,8v18.14a119.933,119.933,0,0,1-16-10.15V248a16.021,16.021,0,0,1,16-16,7.537,7.537,0,0,0,1.57-.16l32.34-6.46a24,24,0,0,0,44.18,0l32.34,6.46A7.537,7.537,0,0,0,312,232a16.021,16.021,0,0,1,16,16v31.99a119.933,119.933,0,0,1-16,10.15V272a8,8,0,0,0-16,0v25.17a120.545,120.545,0,0,1-80,0V272A8,8,0,0,0,208,264Z"/></g></svg>
